<svg width="18" height="18" viewBox="0 0 18 18" fill="none" xmlns="http://www.w3.org/2000/svg">
<path d="M6.464 6.38888C6.65992 5.83193 7.04662 5.3623 7.55563 5.06315C8.06463 4.76401 8.66308 4.65466 9.24498 4.75447C9.82688 4.85428 10.3547 5.15681 10.7349 5.60848C11.1151 6.06015 11.3232 6.63181 11.3223 7.22221C11.3223 8.88888 8.82233 9.72221 8.82233 9.72221M8.889 13.0555H8.89733M17.2223 8.88888C17.2223 13.4912 13.4914 17.2222 8.889 17.2222C4.28662 17.2222 0.555664 13.4912 0.555664 8.88888C0.555664 4.2865 4.28662 0.555542 8.889 0.555542C13.4914 0.555542 17.2223 4.2865 17.2223 8.88888Z" stroke="#A4A7AE" stroke-width="1.11111" stroke-linecap="round" stroke-linejoin="round"/>
</svg>

