<svg width="17" height="19" viewBox="0 0 17 19" fill="none" xmlns="http://www.w3.org/2000/svg">
    <path d="M0.834961 4.16829H2.50163M2.50163 4.16829H15.835M2.50163 4.16829V15.835C2.50163 16.277 2.67722 16.7009 2.98978 17.0135C3.30234 17.326 3.72627 17.5016 4.16829 17.5016H12.5016C12.9437 17.5016 13.3676 17.326 13.6801 17.0135C13.9927 16.7009 14.1683 16.277 14.1683 15.835V4.16829H2.50163ZM5.00163 4.16829V2.50163C5.00163 2.0596 5.17722 1.63568 5.48978 1.32312C5.80234 1.01056 6.22627 0.834961 6.66829 0.834961H10.0016C10.4437 0.834961 10.8676 1.01056 11.1801 1.32312C11.4927 1.63568 11.6683 2.0596 11.6683 2.50163V4.16829M6.66829 8.33496V13.335M10.0016 8.33496V13.335" stroke="#B32318" stroke-width="1.67" stroke-linecap="round" stroke-linejoin="round"/>
</svg>

